<svg width="216" height="42" fill="none" xmlns="http://www.w3.org/2000/svg"><path d="M19.44 30h-5.47v-8.211H7.646V30h-5.47V9.858h5.47v7.467h6.324V9.858h5.47V30zm9.809-7.33V30h-5.442V9.858h6.6c5.473 0 8.21 1.984 8.21 5.951 0 2.333-1.139 4.138-3.416 5.415L41.07 30h-6.172l-4.271-7.33h-1.378zm0-4.091h1.02c1.9 0 2.851-.84 2.851-2.521 0-1.387-.932-2.08-2.796-2.08h-1.075v4.6z" fill="#535353"/><path d="M83.994 16.264c0 2.25-.666 3.991-1.998 5.222-1.323 1.221-3.206 1.832-5.649 1.832h-1.529V30h-5.442V9.858h6.971c2.544 0 4.455.556 5.732 1.667 1.276 1.111 1.915 2.691 1.915 4.74zm-9.176 2.618h.992c.817 0 1.465-.23 1.942-.689.487-.46.73-1.093.73-1.901 0-1.36-.752-2.04-2.259-2.04h-1.405v4.63zm29.511-9.024v12.124c0 2.636-.749 4.68-2.246 6.13-1.488 1.443-3.637 2.164-6.448 2.164-2.746 0-4.859-.703-6.337-2.108-1.47-1.406-2.205-3.426-2.205-6.062V9.858h5.47v11.82c0 1.424.266 2.457.799 3.1.533.643 1.318.965 2.356.965 1.111 0 1.915-.317 2.41-.95.506-.644.759-1.69.759-3.142V9.858h5.442zM122.914 30h-15.692v-3.362l8.721-12.385h-8.515V9.858h15.266v3.348l-8.721 12.4h8.941V30zm17.249 0h-15.692v-3.362l8.721-12.385h-8.515V9.858h15.266v3.348l-8.721 12.4h8.941V30zm2.893 0V9.858h5.442v15.747h7.757V30h-13.199zm28.381 0h-11.958V9.858h11.958v4.367h-6.516v3.169h6.034v4.367h-6.034v3.803h6.516V30z" fill="#B7B7B7"/><path d="M47.652 19.5c5.344 0 6.03-6.577 10.962-6.577M47.652 19.5c5.344 0 6.03 7.308 10.962 7.308" stroke="#F4BA25"/><circle cx="46.563" cy="19.5" r="2.563" fill="#F4BA25"/><circle cx="59.927" cy="12.563" r="2.563" fill="#F4BA25"/><circle cx="59.927" cy="26.436" r="2.563" fill="#F4BA25"/></svg>