<?xml version="1.0" encoding="UTF-8"?>
<svg width="170px" height="22px" viewBox="0 0 170 22" version="1.1" xmlns="http://www.w3.org/2000/svg" xmlns:xlink="http://www.w3.org/1999/xlink">
    <!-- Generator: Sketch 52.3 (67297) - http://www.bohemiancoding.com/sketch -->
    <title>hr_puzzle_logo</title>
    <desc>Created with Sketch.</desc>
    <g id="Page-1" stroke="none" stroke-width="1" fill="none" fill-rule="evenodd">
        <g id="hr_puzzle_logo">
            <path d="M17.44,21 L11.97,21 L11.97,12.789 L5.646,12.789 L5.646,21 L0.176,21 L0.176,0.858 L5.646,0.858 L5.646,8.325 L11.97,8.325 L11.97,0.858 L17.44,0.858 L17.44,21 Z M27.249,13.67 L27.249,21 L21.807,21 L21.807,0.858 L28.407,0.858 C33.88,0.858 36.617,2.842 36.617,6.809 C36.617,9.142 35.478,10.947 33.201,12.224 L39.07,21 L32.898,21 L28.627,13.67 L27.249,13.67 Z M27.249,9.579 L28.269,9.579 C30.169,9.579 31.12,8.739 31.12,7.058 C31.12,5.671 30.188,4.978 28.324,4.978 L27.249,4.978 L27.249,9.578 L27.249,9.579 Z" id="Shape" fill="#535353" fill-rule="nonzero"></path>
            <path d="M81.994,7.264 C81.994,9.514 81.328,11.255 79.996,12.486 C78.673,13.707 76.79,14.318 74.347,14.318 L72.818,14.318 L72.818,21 L67.376,21 L67.376,0.858 L74.347,0.858 C76.891,0.858 78.802,1.414 80.079,2.525 C81.355,3.636 81.994,5.216 81.994,7.265 L81.994,7.264 Z M72.818,9.882 L73.81,9.882 C74.627,9.882 75.275,9.652 75.752,9.193 C76.239,8.733 76.482,8.1 76.482,7.292 C76.482,5.932 75.73,5.252 74.223,5.252 L72.818,5.252 L72.818,9.882 Z M102.329,0.858 L102.329,12.982 C102.329,15.618 101.58,17.662 100.083,19.112 C98.595,20.555 96.446,21.276 93.635,21.276 C90.889,21.276 88.776,20.573 87.298,19.168 C85.828,17.762 85.093,15.742 85.093,13.106 L85.093,0.858 L90.563,0.858 L90.563,12.678 C90.563,14.102 90.829,15.135 91.362,15.778 C91.895,16.421 92.68,16.743 93.718,16.743 C94.829,16.743 95.633,16.426 96.128,15.793 C96.634,15.149 96.887,14.103 96.887,12.651 L96.887,0.858 L102.329,0.858 Z M120.914,21 L105.222,21 L105.222,17.638 L113.943,5.253 L105.428,5.253 L105.428,0.858 L120.694,0.858 L120.694,4.206 L111.973,16.606 L120.914,16.606 L120.914,21 Z M138.163,21 L122.471,21 L122.471,17.638 L131.192,5.253 L122.677,5.253 L122.677,0.858 L137.943,0.858 L137.943,4.206 L129.222,16.606 L138.163,16.606 L138.163,21 Z M141.056,21 L141.056,0.858 L146.498,0.858 L146.498,16.605 L154.255,16.605 L154.255,21 L141.056,21 Z M169.437,21 L157.479,21 L157.479,0.858 L169.437,0.858 L169.437,5.225 L162.921,5.225 L162.921,8.394 L168.955,8.394 L168.955,12.761 L162.921,12.761 L162.921,16.564 L169.437,16.564 L169.437,21 Z" id="Shape" fill="#B7B7B7" fill-rule="nonzero"></path>
            <path d="M45.652,10.5 C50.996,10.5 51.682,3.923 56.614,3.923 M45.652,10.5 C50.996,10.5 51.682,17.808 56.614,17.808" id="Shape" stroke="#EE9E35" stroke-width="1.5"></path>
            <circle id="Oval" fill="#1EAAD5" cx="44.563" cy="10.5" r="2.563"></circle>
            <circle id="Oval" fill="#1EAAD5" cx="57.927" cy="3.563" r="2.563"></circle>
            <circle id="Oval" fill="#1EAAD5" cx="57.927" cy="17.436" r="2.563"></circle>
        </g>
    </g>
</svg>