<?xml version="1.0" encoding="UTF-8" standalone="no"?>
<!-- Created with Inkscape (http://www.inkscape.org/) -->
<svg
   xmlns:svg="http://www.w3.org/2000/svg"
   xmlns="http://www.w3.org/2000/svg"
   version="1.0"
   width="956.69287"
   height="354.33069"
   id="svg2">
  <defs
     id="defs4" />
  <g
     transform="translate(-740.07826,190.66011)"
     id="layer1">
    <g
       transform="translate(35.429168,35.360955)"
       id="g10233">
      <path
         d="M 749.55003,-83.952637 L 749.55003,-190.54673 L 759.14208,-190.54673 L 759.14208,-143.73926 L 817.32053,-143.73926 L 817.32053,-190.54673 L 826.91258,-190.54673 L 826.91258,-83.952637 L 817.32053,-83.952637 L 817.32053,-134.88725 L 759.14208,-134.88725 L 759.14208,-83.952637 L 749.55003,-83.952637"
         id="path9659"
         style="fill:#131313;fill-opacity:1;fill-rule:nonzero;stroke:none" />
      <path
         d="M 873.12233,-89.858576 C 892.46297,-89.858576 896.14893,-105.79788 895.26658,-121.31024 C 882.71438,-120.86906 856.44299,-123.21726 856.44299,-104.61666 C 856.44299,-94.583441 864.11378,-89.858576 873.12233,-89.858576 z M 895.26658,-136.21064 C 894.38422,-148.32166 888.17928,-152.16417 877.70488,-152.16417 C 868.39747,-152.16417 860.72668,-149.36057 859.54546,-139.31311 L 850.09573,-139.31311 C 852.30161,-154.52661 863.6726,-160.27614 877.84719,-160.27614 C 894.24191,-160.27614 904.41744,-152.74767 904.13281,-135.76946 L 904.13281,-100.63184 C 903.97627,-94.882303 904.57399,-88.976222 904.87285,-83.952495 L 895.70775,-83.952495 L 895.42312,-94.882303 L 895.12426,-94.882303 L 894.68308,-93.843402 C 891.42407,-87.638459 881.53316,-81.732378 871.49994,-81.732378 C 857.76652,-81.732378 846.83671,-90.157438 846.83671,-104.61666 C 846.83671,-114.66412 852.89934,-122.33491 861.75134,-126.0351 C 871.64225,-130.31879 884.49332,-128.83871 895.26658,-129.4222 L 895.26658,-136.21064"
         id="path9663"
         style="fill:#131313;fill-opacity:1;fill-rule:nonzero;stroke:none" />
      <path
         d="M 936.02551,-83.952637 L 927.15927,-83.952637 L 927.15927,-141.37682 C 927.15927,-147.14059 926.7181,-153.04667 926.43346,-158.0704 L 935.58433,-158.0704 L 936.02551,-147.14059 L 936.32437,-146.84173 C 941.49041,-156.00683 949.90124,-160.27628 959.49329,-160.27628 C 983.71534,-160.27628 985.63659,-138.87208 985.63659,-130.31893 L 985.63659,-83.952637 L 976.77035,-83.952637 L 976.77035,-131.78478 C 976.77035,-144.63584 969.3842,-152.16432 957.2874,-152.16432 C 942.67163,-152.16432 936.02551,-139.91098 936.02551,-126.61874 L 936.02551,-83.952637"
         id="path9667"
         style="fill:#131313;fill-opacity:1;fill-rule:nonzero;stroke:none" />
      <path
         d="M 1033.9098,-160.29052 C 1047.9421,-160.29052 1059.7542,-155.42334 1060.9212,-139.76867 L 1051.3292,-139.76867 C 1050.4468,-149.07608 1042.1783,-152.16432 1033.0274,-152.16432 C 1024.7589,-152.16432 1016.3481,-148.91953 1016.3481,-140.20984 C 1016.3481,-129.28004 1030.665,-130.31894 1050.7457,-123.23164 C 1058.4165,-120.57034 1063.2837,-113.93846 1063.2837,-105.95457 C 1063.2837,-89.27523 1047.7855,-81.746756 1032.1309,-81.746756 C 1019.294,-81.746756 1004.5359,-87.795152 1004.2371,-104.18986 L 1013.8291,-104.18986 C 1014.5692,-93.117741 1024.3178,-89.872954 1034.351,-89.872954 C 1043.8007,-89.872954 1053.6916,-94.298957 1053.6916,-104.63104 C 1053.6916,-115.26199 1042.036,-117.0267 1030.2238,-119.68799 C 1018.554,-122.4916 1006.7418,-125.89293 1006.7418,-139.62635 C 1006.7418,-154.98216 1020.9164,-160.29052 1033.9098,-160.29052"
         id="path9671"
         style="fill:#131313;fill-opacity:1;fill-rule:nonzero;stroke:none" />
      <path
         d="M 1154.949,-101.67088 C 1165.7223,-101.67088 1173.1084,-103.59214 1173.1084,-115.84547 C 1173.1084,-128.09881 1165.7223,-130.02007 1154.949,-130.02007 L 1137.0884,-130.02007 L 1137.0884,-101.67088 L 1154.949,-101.67088 z M 1154.949,-147.73831 C 1164.541,-147.73831 1169.8636,-151.72314 1169.8636,-160.29051 C 1169.8636,-168.84366 1164.541,-172.82849 1154.949,-172.82849 L 1137.0884,-172.82849 L 1137.0884,-147.73831 L 1154.949,-147.73831 z M 1114.2042,-83.952636 L 1114.2042,-190.54673 L 1154.209,-190.54673 C 1173.265,-191.72794 1192.7479,-183.75829 1192.7479,-162.93758 C 1192.7479,-151.28196 1184.636,-143.15576 1173.9908,-139.61211 L 1173.9908,-139.32748 C 1187.4253,-136.50964 1197.4728,-127.21646 1197.4728,-111.56179 C 1197.4728,-90.456441 1170.9025,-82.77142 1154.5078,-83.952636 L 1114.2042,-83.952636"
         id="path9675"
         style="fill:#131313;fill-opacity:1;fill-rule:nonzero;stroke:none" />
      <path
         d="M 1268.0326,-172.98503 L 1252.9757,-172.98503 L 1252.9757,-190.54673 L 1268.0326,-190.54673 L 1268.0326,-172.98503 z M 1247.8097,-96.504836 C 1261.3865,-96.504836 1263.6066,-109.19935 1263.6066,-121.01152 C 1263.6066,-132.82368 1261.3865,-145.51819 1247.8097,-145.51819 C 1234.2328,-145.51819 1232.0127,-132.82368 1232.0127,-121.01152 C 1232.0127,-109.19935 1234.2328,-96.504836 1247.8097,-96.504836 z M 1242.6436,-172.98503 L 1227.5867,-172.98503 L 1227.5867,-190.54673 L 1242.6436,-190.54673 L 1242.6436,-172.98503 z M 1247.8097,-81.746749 C 1223.6018,-81.746749 1209.1284,-97.686052 1209.1284,-121.01152 C 1209.1284,-144.33698 1223.6018,-160.29051 1247.8097,-160.29051 C 1272.0175,-160.29051 1286.4909,-144.33698 1286.4909,-121.01152 C 1286.4909,-97.686052 1272.0175,-81.746749 1247.8097,-81.746749"
         id="path9679"
         style="fill:#131313;fill-opacity:1;fill-rule:nonzero;stroke:none" />
      <path
         d="M 1341.7092,-132.08378 C 1341.5669,-138.13218 1339.0479,-145.51834 1330.4948,-145.51834 C 1321.045,-145.51834 1320.8885,-127.80009 1320.5896,-122.05056 C 1321.1873,-115.24789 1321.3297,-96.504977 1330.7794,-96.504977 C 1339.3468,-96.504977 1341.8515,-104.91581 1342.0081,-110.97843 L 1363.5546,-110.97843 C 1362.8288,-92.078974 1351.1589,-81.74689 1330.7794,-81.74689 C 1308.7917,-81.74689 1297.7196,-101.37216 1297.7196,-121.01166 C 1297.7196,-140.65116 1308.7917,-160.29065 1330.7794,-160.29065 C 1349.6789,-160.29065 1363.7111,-149.50316 1363.5546,-132.08378 L 1341.7092,-132.08378"
         id="path9683"
         style="fill:#131313;fill-opacity:1;fill-rule:nonzero;stroke:none" />
      <path
         d="M 1398.6923,-128.09896 L 1398.9912,-127.8001 L 1420.8365,-158.9529 L 1445.4998,-158.9529 L 1419.9542,-126.47657 L 1447.1222,-83.952782 L 1421.2777,-83.952782 L 1398.9912,-124.55531 L 1398.6923,-124.25645 L 1398.6923,-83.952782 L 1376.5481,-83.952782 L 1376.5481,-190.54687 L 1398.6923,-190.54687 L 1398.6923,-128.09896"
         id="path9687"
         style="fill:#131313;fill-opacity:1;fill-rule:nonzero;stroke:none" />
      <path
         d="M 1458.1942,-83.952637 L 1480.3385,-83.952637 L 1480.3385,-190.54673 L 1458.1942,-190.54673 L 1458.1942,-83.952637 z"
         id="path9689"
         style="fill:#131313;fill-opacity:1;fill-rule:nonzero;stroke:none" />
      <path
         d="M 1544.5513,-129.8779 C 1544.5513,-138.0041 1542.3454,-145.53257 1531.5579,-145.53257 C 1521.3824,-145.53257 1519.1623,-138.0041 1518.8634,-129.8779 L 1544.5513,-129.8779 z M 1518.8634,-115.11981 C 1518.8634,-105.51354 1520.2012,-96.519215 1531.5579,-96.519215 C 1539.2429,-96.519215 1543.0712,-99.322824 1545.149,-106.11126 L 1565.0732,-106.11126 C 1563.1519,-87.795292 1548.835,-81.746896 1531.5579,-81.746896 C 1506.1689,-81.746896 1495.9791,-96.063806 1495.9791,-120.86935 C 1495.9791,-143.17014 1508.9725,-160.29066 1531.5579,-160.29066 C 1545.4337,-160.29066 1556.9612,-155.5658 1563.1519,-142.57242 C 1565.2297,-138.44528 1566.2544,-134.00504 1566.8521,-129.29441 C 1567.4356,-124.71186 1567.4356,-119.98699 1567.4356,-115.11981 L 1518.8634,-115.11981"
         id="path9693"
         style="fill:#131313;fill-opacity:1;fill-rule:nonzero;stroke:none" />
      <path
         d="M 1599.926,-158.07026 L 1600.3672,-144.6357 L 1600.666,-144.6357 C 1605.3909,-156.29132 1614.8406,-159.25148 1625.9128,-158.95261 L 1625.9128,-139.31312 L 1616.3207,-139.31312 C 1612.6205,-139.02848 1607.7533,-136.95068 1605.5475,-133.86244 C 1603.1708,-129.72107 1602.7296,-125.59393 1602.5873,-120.71252 L 1602.5873,-83.952499 L 1580.5854,-83.952499 L 1580.443,-143.31217 C 1580.443,-146.40041 1580.0019,-152.60536 1579.703,-158.07026 L 1599.926,-158.07026"
         id="path9697"
         style="fill:#131313;fill-opacity:1;fill-rule:nonzero;stroke:none" />
      <path
         d="M 801.96473,-12.46785 C 801.08238,-23.241111 795.31861,-28.5637 784.24649,-28.5637 C 775.83566,-28.5637 767.26828,-24.137697 767.26828,-14.830282 C 767.26828,-3.316982 777.60037,-1.979219 786.76547,0.22666673 C 803.00363,4.3680393 826.91259,8.9363576 826.91259,30.340565 C 826.91259,56.7685 803.88599,65.933599 781.0017,65.933599 C 756.63734,65.933599 739.3745,56.483869 740.10031,29.600526 L 763.42577,29.600526 C 762.54342,41.42692 769.33185,49.396572 781.30056,49.396572 C 790.45143,49.396572 802.56245,46.578731 802.56245,35.221977 C 802.56245,22.669775 787.34896,21.787421 778.19809,19.424989 C 763.28346,15.724793 742.90392,8.9363576 742.90392,-9.9631023 C 742.90392,-34.313235 765.34703,-45.100728 787.20664,-45.100728 C 807.87081,-45.100728 823.96666,-33.872058 823.96666,-12.46785 L 801.96473,-12.46785"
         id="path9701"
         style="fill:#131313;fill-opacity:1;fill-rule:nonzero;stroke:none" />
      <path
         d="M 848.47319,-10.404137 L 848.47319,-25.019909 L 870.61744,-32.989561 L 870.61744,-10.404137 L 887.29678,-10.404137 L 887.29678,4.3539503 L 870.61744,4.3539503 L 870.61744,38.765768 C 870.61744,48.51436 872.09751,51.161423 879.7683,51.161423 C 882.13074,51.161423 884.49317,50.862561 886.8556,50.720246 L 886.8556,63.713624 C 884.35085,64.894841 872.53869,65.933742 869.43622,65.933742 C 852.15915,65.933742 848.47319,56.925189 848.47319,40.829339 L 848.47319,4.3539503 L 833.55856,4.3539503 L 833.55856,-10.404137 L 848.47319,-10.404137"
         id="path9705"
         style="fill:#131313;fill-opacity:1;fill-rule:nonzero;stroke:none" />
      <path
         d="M 900.29016,-10.404137 L 922.43441,-10.404137 L 922.43441,63.713624 L 900.29016,63.713624 L 900.29016,-10.404137 z M 923.17445,-42.880468 L 923.17445,-23.838693 L 899.55012,-23.838693 L 899.55012,-42.880468 L 923.17445,-42.880468"
         id="path9709"
         style="fill:#131313;fill-opacity:1;fill-rule:nonzero;stroke:none" />
      <path
         d="M 980.45632,-30.342498 C 964.80165,-32.107207 964.51702,-25.019909 965.10051,-10.404137 L 978.53506,-10.404137 L 978.53506,4.3539502 L 965.10051,4.3539502 L 965.10051,63.699393 L 942.95626,63.699393 L 942.95626,4.3539502 L 931.88414,4.3539502 L 931.88414,-10.404137 L 942.95626,-10.404137 C 942.37277,-31.523714 944.27979,-45.100585 968.3453,-45.100585 C 972.34435,-45.100585 976.47149,-44.659408 980.45632,-44.075916 L 980.45632,-30.342498"
         id="path9713"
         style="fill:#131313;fill-opacity:1;fill-rule:nonzero;stroke:none" />
      <path
         d="M 996.11099,-10.404137 L 996.11099,-25.019909 L 1018.2552,-32.989561 L 1018.2552,-10.404137 L 1034.9346,-10.404137 L 1034.9346,4.3539503 L 1018.2552,4.3539503 L 1018.2552,38.765768 C 1018.2552,48.51436 1019.7353,51.161423 1027.4061,51.161423 C 1029.7685,51.161423 1032.131,50.862561 1034.4934,50.720246 L 1034.4934,63.713624 C 1031.9887,64.894841 1020.1765,65.933742 1017.074,65.933742 C 999.79695,65.933742 996.11099,56.925189 996.11099,40.829339 L 996.11099,4.3539503 L 981.19636,4.3539503 L 981.19636,-10.404137 L 996.11099,-10.404137"
         id="path9717"
         style="fill:#131313;fill-opacity:1;fill-rule:nonzero;stroke:none" />
      <path
         d="M 1096.3578,54.548383 C 1091.6329,61.35105 1084.688,65.919368 1073.4735,65.919368 C 1066.0874,65.919368 1051.7704,60.312149 1049.1092,49.524656 C 1047.9279,44.956338 1047.6433,40.231473 1047.6433,37.726725 L 1047.6433,-10.404279 L 1069.7876,-10.404279 L 1069.7876,34.02653 C 1069.9299,41.996181 1072.15,51.147049 1083.0656,51.147049 C 1090.0105,51.147049 1096.0589,44.814023 1096.3578,34.02653 L 1096.3578,-10.404279 L 1118.502,-10.404279 L 1118.502,50.421242 C 1118.6586,54.847245 1118.9432,59.273248 1119.3844,63.699251 L 1097.2402,63.699251 L 1096.3578,54.548383"
         id="path9721"
         style="fill:#131313;fill-opacity:1;fill-rule:nonzero;stroke:none" />
      <path
         d="M 1160.428,-1.8367613 L 1160.7269,-1.3955841 C 1165.2952,-8.1840197 1172.2402,-12.610023 1183.4546,-12.610023 C 1190.8408,-12.610023 1205.1577,-7.1593502 1207.819,3.6281428 C 1209.0002,8.2106925 1209.299,12.935557 1209.299,15.440305 L 1209.299,63.713624 L 1187.1548,63.713624 L 1187.1548,19.126269 C 1186.9982,11.156617 1184.7924,2.1480646 1173.8626,2.1480646 C 1166.9176,2.1480646 1160.8692,8.3530077 1160.5703,19.126269 L 1160.5703,63.713624 L 1138.4261,63.713624 L 1138.4261,-10.404137 L 1160.428,-10.404137 L 1160.428,-1.8367613"
         id="path9725"
         style="fill:#131313;fill-opacity:1;fill-rule:nonzero;stroke:none" />
      <path
         d="M 1263.4787,47.475459 C 1275.5897,47.475459 1277.7956,35.065573 1277.7956,25.473528 C 1277.7956,14.543719 1275.5897,2.1480646 1263.4787,2.1480646 C 1251.3677,2.1480646 1249.1618,14.543719 1249.1618,25.473528 C 1249.1618,35.065573 1251.3677,47.475459 1263.4787,47.475459 z M 1299.9399,57.067504 C 1299.9399,74.344571 1296.1116,93.244031 1263.621,92.945169 C 1247.2405,92.945169 1229.6646,88.960343 1229.2234,69.036213 L 1250.1865,69.036213 C 1250.4853,75.668102 1256.3914,78.17285 1262.4398,78.17285 C 1279.2757,78.17285 1278.6922,62.83127 1277.7956,52.043777 L 1277.511,52.043777 C 1272.9284,59.287621 1265.1011,62.233546 1256.6903,62.233546 C 1236.6096,62.233546 1226.2775,43.334086 1226.2775,25.331212 C 1226.2775,6.4317524 1237.0508,-12.610023 1257.7292,-12.610023 C 1267.6058,-12.610023 1273.9673,-9.3652359 1277.511,-1.8367613 L 1277.7956,-1.8367613 L 1277.7956,-10.404137 L 1299.9399,-10.404137 L 1299.9399,57.067504"
         id="path9729"
         style="fill:#131313;fill-opacity:1;fill-rule:nonzero;stroke:none" />
      <path
         d="M 1336.0166,63.67093 L 1468.5406,63.67093 L 1468.5406,-19.754246 L 1336.0166,-19.754246 L 1336.0166,63.67093 z"
         id="path9731"
         style="fill:#d91919;fill-opacity:1;fill-rule:nonzero;stroke:none" />
      <path
         d="M 1467.1743,63.67093 L 1599.6983,63.67093 L 1599.6983,-19.754246 L 1467.1743,-19.754246 L 1467.1743,63.67093 z"
         id="path9733"
         style="fill:#ee7900;fill-opacity:1;fill-rule:nonzero;stroke:none" />
    </g>
  </g>
</svg>
